<svg width="1200" height="1200" viewBox="0 0 1200 1200" fill="none" xmlns="http://www.w3.org/2000/svg">
<ellipse cx="312.5" cy="418" rx="95.5" ry="96" fill="white"/>
<ellipse cx="540.5" cy="418" rx="95.5" ry="96" fill="white"/>
<ellipse cx="426.5" cy="536" rx="98.5" ry="57" fill="#CFBDA9"/>
<ellipse cx="368" cy="576" rx="33" ry="20" fill="#CFBDA9"/>
<ellipse cx="483" cy="581" rx="30" ry="19" fill="#CFBDA9"/>
<rect x="348" y="593" width="140" height="71" fill="white"/>
<path d="M220.645 241.133C185.045 250.733 169.978 284.333 186.912 316.867C191.578 325.8 203.045 339 212.112 345.8L216.512 349L211.178 359.133C197.045 386.2 188.245 418.867 184.512 458.333C183.712 466.333 182.512 502.733 181.845 539C181.045 575.267 179.978 613.133 179.178 623C176.912 654.867 176.512 652.467 186.912 663.267C221.578 699.4 276.378 724.467 328.512 728.2C390.912 732.6 450.378 711.8 508.378 665.133C521.445 654.6 564.245 615.133 575.845 602.733C685.978 485.933 718.778 456.333 763.312 433.133C792.112 418.067 812.645 412.333 838.512 412.333C873.445 412.333 900.378 422.733 949.178 455.267C984.645 478.733 999.445 485.667 1014.38 485.667C1020.25 485.667 1031.05 482.2 1035.18 479.133C1038.38 476.6 1038.38 476.467 1035.85 475.667C1025.71 472.6 1013.31 464.867 1005.58 456.467C995.045 445.4 991.845 439.267 991.845 429.8C991.845 423.133 992.112 422.467 997.445 417.667C1006.78 409.4 1023.45 405.8 1052.25 405.667H1067.18V418.6C1067.18 432.467 1065.85 443.4 1062.38 458.067C1061.18 463 1060.51 467.4 1060.91 467.8C1062.11 469.133 1072.51 458.733 1078.65 450.333C1088.91 435.933 1099.18 409.8 1099.18 398.2C1099.18 395.8 1100.65 394.2 1105.58 391.8C1113.31 387.8 1123.71 377.4 1126.51 370.733C1130.78 360.2 1128.25 346.467 1119.98 336.733C1114.78 330.6 1095.58 318.067 1079.05 310.067C1025.18 283.8 962.245 268.2 901.178 266.067C831.578 263.667 763.712 283.4 697.978 325C681.712 335.267 660.378 350.867 653.045 357.933L648.778 361.933L644.778 356.067C642.645 353 639.578 349.267 638.112 347.933C635.445 345.4 635.445 345.4 645.045 335.8C661.978 318.867 670.645 297.133 667.445 279.133C662.912 253.667 644.378 239.133 616.378 239C598.778 239 582.245 246.6 569.178 260.6L560.645 269.8L553.712 266.2C535.045 256.733 509.178 249 482.378 244.733C461.578 241.4 410.778 241.4 390.512 244.733C361.045 249.533 330.378 258.867 306.645 270.067L294.778 275.667L292.778 272.333C288.378 265.133 270.378 248.867 263.045 245.4C249.312 238.733 234.778 237.267 220.645 241.133ZM980.778 332.467C999.045 337.133 1013.85 341.4 1013.85 341.933C1013.85 344.6 1004.65 352.733 997.578 356.333C973.978 368.067 947.445 354.333 942.512 327.8C941.578 322.867 941.578 322.6 944.645 323.267C946.378 323.667 962.645 327.8 980.778 332.467ZM335.578 339.667C351.445 343.8 368.112 354.6 376.912 366.733C388.378 382.333 393.845 398.6 393.845 417.8C393.978 468.867 350.112 505 299.178 495.8C261.712 489 235.178 456.6 235.178 417.667C235.178 381.533 259.445 349 293.312 339.667C302.378 337.267 326.112 337.133 335.578 339.667ZM555.712 339.8C575.712 345 595.978 361.667 605.045 380.6C614.778 401 616.245 422.733 609.178 443.8C603.312 461.4 594.245 473.4 579.578 483.533C562.245 495.267 542.245 499.667 521.712 495.933C503.845 492.867 491.845 486.6 479.045 473.8C458.645 453.533 451.178 428.067 457.178 399.667C463.045 372.067 486.245 346.867 512.645 339.8C522.512 337.133 545.445 337.133 555.712 339.8ZM435.712 484.333C446.512 486.067 458.912 492.2 466.645 499.533C470.112 503 475.845 507.267 479.178 509.267C489.045 515.133 498.778 525.267 503.445 534.733C513.578 555.267 506.112 578.733 486.645 587.133C469.578 594.467 444.645 589.8 429.445 576.333L424.912 572.333L419.712 576.467C397.978 593.8 367.445 595.4 351.578 580.067C341.312 570.067 338.378 550.333 344.912 535.8C349.045 526.867 359.578 515.4 369.045 509.4C372.778 507.133 379.178 502.067 383.178 498.333C392.112 489.933 396.912 487.267 407.712 485C417.712 482.867 425.445 482.6 435.712 484.333ZM417.712 611.267C417.578 620.333 417.178 629.4 416.645 631.667L415.845 635.667H404.245C396.512 635.667 392.112 635.133 390.912 633.933C389.712 632.733 389.045 627 388.778 615.8L388.245 599.4L401.445 597.4C408.645 596.333 415.312 595.267 416.245 595.133C417.445 595 417.845 599 417.712 611.267ZM449.578 597.667L460.778 599.4L460.245 615.8C459.978 627 459.312 632.733 458.112 633.933C455.578 636.467 433.845 637.267 432.378 634.867C431.712 633.8 431.178 624.333 431.178 613.8V594.6L434.912 595.4C436.912 595.8 443.445 596.867 449.578 597.667Z" fill="#6AD7E5"/>
<path d="M326.632 396.612C317.565 400.612 311.565 411.812 313.298 421.145C315.565 433.545 325.032 440.878 337.565 439.812C349.965 438.745 356.898 431.412 357.698 418.345C358.098 411.412 357.698 409.412 355.032 405.412C349.165 396.612 335.965 392.478 326.632 396.612Z" fill="black"/>
<path d="M501.8 398.001C493.267 402.801 491 407.068 491 417.601C491 424.801 491.533 427.601 493.8 430.401C498.2 436.534 503.133 439.334 510.2 440.001C530.733 441.868 543.4 418.668 529.933 403.334C522.333 394.668 511.267 392.534 501.8 398.001Z" fill="black"/>
<path d="M405.178 498.733C396.245 501.8 390.645 505.933 387.978 511.533C381.712 524.867 390.378 538.6 408.378 543.933C418.512 546.867 436.245 545.8 445.578 541.667C457.178 536.6 464.512 525.533 462.645 515.667C461.445 509.4 451.978 501.133 443.045 498.467C433.445 495.533 413.845 495.667 405.178 498.733Z" fill="black"/>
<path d="M1072.11 491.933C1056.11 527.8 1053.45 543.4 1061.31 555.4C1065.71 562.067 1074.51 566.2 1081.31 564.867C1087.85 563.667 1096.11 555.4 1097.31 549C1098.65 541.4 1097.18 530.067 1093.05 518.2C1088.78 505.267 1079.18 485.267 1077.05 484.6C1076.25 484.467 1073.98 487.667 1072.11 491.933Z" fill="#6AD7E5"/>
<path d="M801.845 523.533C752.912 532.333 714.912 551.933 667.578 592.6C659.712 599.4 636.645 621.267 616.512 641C550.512 705.933 535.178 720.067 509.178 740.6C473.312 768.6 443.045 783.933 408.512 791.667C394.912 794.733 365.312 795.8 349.045 793.8C287.178 786.067 221.845 750.867 170.245 697.267C133.045 658.6 109.978 615.267 99.8451 565C97.5784 553.667 96.1117 551 92.5117 551C86.1117 551 83.3117 560.467 82.2451 585.8C80.6451 625.8 86.9117 668.733 100.112 709C131.712 804.867 205.312 874.6 299.178 897.533C308.378 899.667 323.312 902.467 332.245 903.667C351.045 905.933 389.178 906.333 405.845 904.333C420.778 902.467 447.445 895.933 463.178 890.067C500.645 876.2 545.178 847.133 578.912 814.467L591.445 802.333L594.112 805.667C616.112 832.867 664.112 875.8 696.778 897.667C786.778 957.533 885.578 956.067 957.178 893.8C1007.58 850.067 1034.65 783.667 1029.85 716.067C1025.71 658.2 1003.98 610.733 965.045 573.8C938.512 548.733 909.045 533.133 872.512 525C858.778 521.933 815.578 521.133 801.845 523.533ZM860.512 629.4C873.445 633.667 885.445 641.133 895.845 651.667C909.978 665.933 918.912 682.867 923.978 705.133C927.445 720.333 927.178 747.933 923.312 762.2C917.445 784.333 905.045 803.4 887.978 817.133C855.578 843.133 812.645 845.8 772.778 824.2C748.245 811 723.578 791.4 689.445 757.8L665.845 734.467L672.112 727.933C682.912 716.867 731.178 673.133 744.112 662.6C767.445 643.667 785.445 633.533 804.512 628.333C818.378 624.6 847.578 625.267 860.512 629.4Z" fill="#6AD7E5"/>
</svg>
